<svg height="1000" width="785.714" xmlns="http://www.w3.org/2000/svg"><path d="M724.284 737.74q0 22.32 -15.624 37.944l-75.888 75.888q-15.624 15.624 -37.944 15.624t-37.944 -15.624l-164.052 -164.052 -164.052 164.052q-15.624 15.624 -37.944 15.624t-37.944 -15.624l-75.888 -75.888q-15.624 -15.624 -15.624 -37.944t15.624 -37.944l164.052 -164.052 -164.052 -164.052q-15.624 -15.624 -15.624 -37.944t15.624 -37.944l75.888 -75.888q15.624 -15.624 37.944 -15.624t37.944 15.624l164.052 164.052 164.052 -164.052q15.624 -15.624 37.944 -15.624t37.944 15.624l75.888 75.888q15.624 15.624 15.624 37.944t-15.624 37.944l-164.052 164.052 164.052 164.052q15.624 15.624 15.624 37.944z"/></svg>